{
  "asset": {
    "version": "2.0",
    "generator": "THREE.GLTFExporter"
  },
  "scenes": [
    {
      "name": "Scene",
      "nodes": [
        3
      ]
    }
  ],
  "scene": 0,
  "nodes": [
    {
      "mesh": 0
    },
    {
      "children": [
        0
      ]
    },
    {
      "matrix": [
        -1.1920899978257267e-7,
        -1,
        4.618524931645421e-14,
        0,
        1,
        -1.1920899978257606e-7,
        -2.384189822364472e-7,
        0,
        2.384189822364493e-7,
        1.7763560876585603e-14,
        1,
        0,
        -3,
        6,
        6,
        1
      ],
      "children": [
        1
      ]
    },
    {
      "children": [
        2
      ]
    }
  ],
  "bufferViews": [
    {
      "buffer": 0,
      "byteOffset": 0,
      "byteLength": 587376,
      "target": 34962,
      "byteStride": 12
    }
  ],
  "buffers": [
    {
      "byteLength": 587376,
      "uri": "data:application/octet-stream;base64,"
    }
  ],
  "accessors": [
    {
      "bufferView": 0,
      "componentType": 5126,
      "count": 48948,
      "max": [
        80,
        52,
        18
      ],
      "min": [
        -68,
        -46,
        -30
      ],
      "type": "VEC3"
    }
  ],
  "materials": [
    {
      "pbrMetallicRoughness": {
        "baseColorFactor": [
          0.7230551289161951,
          0.33245153633549385,
          0.02121901037134225,
          1
        ],
        "metallicFactor": 0.5,
        "roughnessFactor": 0.5
      },
      "name": "Metallic"
    }
  ],
  "meshes": [
    {
      "primitives": [
        {
          "mode": 4,
          "attributes": {
            "POSITION": 0
          },
          "material": 0
        }
      ]
    }
  ]
}