{
  "asset": {
    "version": "2.0",
    "generator": "THREE.GLTFExporter"
  },
  "scenes": [
    {
      "name": "Scene",
      "nodes": [
        3
      ]
    }
  ],
  "scene": 0,
  "nodes": [
    {
      "mesh": 0
    },
    {
      "children": [
        0
      ]
    },
    {
      "matrix": [
        0.7071070000000022,
        0.7071069999999982,
        1.1920909691055807e-7,
        0,
        -0.7071070000000022,
        0.7071069999999979,
        4.9378033649383375e-8,
        0,
        -4.937800308947193e-8,
        -1.192090663505961e-7,
        0.9999999999999999,
        0,
        -0.00000229459,
        10.5074,
        19.5,
        1
      ],
      "children": [
        1
      ]
    },
    {
      "children": [
        2
      ]
    }
  ],
  "bufferViews": [
    {
      "buffer": 0,
      "byteOffset": 0,
      "byteLength": 2938752,
      "target": 34962,
      "byteStride": 12
    }
  ],
  "buffers": [
    {
      "byteLength": 2938752,
      "uri": "data:application/octet-stream;base64,"
    }
  ],
  "accessors": [
    {
      "bufferView": 0,
      "componentType": 5126,
      "count": 244896,
      "max": [
        40.5,
        40.5,
        0
      ],
      "min": [
        -42.067501068115234,
        -42.9635009765625,
        -39
      ],
      "type": "VEC3"
    }
  ],
  "materials": [
    {
      "pbrMetallicRoughness": {
        "baseColorFactor": [
          0.7230551289161951,
          0.33245153633549385,
          0.02121901037134225,
          1
        ],
        "metallicFactor": 0.5,
        "roughnessFactor": 0.5
      },
      "name": "Metallic"
    }
  ],
  "meshes": [
    {
      "primitives": [
        {
          "mode": 4,
          "attributes": {
            "POSITION": 0
          },
          "material": 0
        }
      ]
    }
  ]
}